<?xml version="1.0" standalone="no"?>
<!DOCTYPE svg PUBLIC "-//W3C//DTD SVG 20010904//EN"
 "http://www.w3.org/TR/2001/REC-SVG-20010904/DTD/svg10.dtd">
<svg version="1.0" xmlns="http://www.w3.org/2000/svg"
 width="300.000000pt" height="181.000000pt" viewBox="0 0 300.000000 181.000000"
 preserveAspectRatio="xMidYMid meet">
<metadata>
Created by potrace 1.10, written by Peter Selinger 2001-2011
</metadata>
<g transform="translate(0.000000,181.000000) scale(0.100000,-0.100000)"
fill="#2ab7ca" stroke="none">
<path d="M2337 1743 c-4 -3 -7 -16 -7 -28 0 -12 -3 -25 -7 -29 -4 -4 -9 -18
-11 -32 -3 -25 -27 -143 -77 -378 -14 -66 -23 -128 -19 -138 7 -23 31 -23 124
3 41 11 85 22 97 24 110 24 383 100 402 112 l25 16 -23 18 c-13 10 -42 23 -64
29 -146 37 -238 77 -276 123 -33 39 -38 49 -90 180 -39 97 -55 119 -74 100z
m95 -208 c45 -90 72 -121 130 -148 49 -23 191 -68 262 -82 23 -5 -46 -26 -279
-85 -170 -44 -311 -78 -312 -76 -2 1 25 135 59 297 l62 295 24 -71 c13 -38 37
-97 54 -130z"/>
<path d="M1435 1584 c-88 -20 -185 -50 -185 -56 0 -4 -6 -8 -13 -8 -23 0 -109
-63 -167 -121 -76 -79 -99 -109 -127 -169 l-17 -35 -131 0 -132 0 -84 -43
c-206 -105 -319 -286 -319 -510 0 -163 50 -294 150 -392 66 -64 76 -72 120
-95 113 -59 265 -78 399 -51 45 9 152 42 239 72 198 69 322 101 454 115 95 11
282 8 353 -5 17 -3 79 -15 138 -26 135 -25 184 -25 280 0 135 34 231 109 297
231 35 64 35 64 35 194 0 122 -2 134 -28 186 -32 65 -115 153 -166 175 -66 29
-76 33 -129 45 -35 7 -85 9 -141 5 l-87 -7 -13 43 c-49 161 -185 325 -321 386
-57 25 -129 53 -155 59 -30 7 -227 13 -250 7z m222 -29 c160 -30 326 -142 410
-278 43 -68 77 -144 88 -195 4 -18 10 -30 15 -27 22 13 142 22 204 14 157 -20
273 -112 320 -255 17 -53 23 -177 10 -229 -15 -62 -64 -142 -118 -193 -129
-122 -268 -146 -546 -92 -88 17 -152 22 -275 22 -203 1 -291 -16 -595 -119
-213 -72 -231 -76 -335 -81 -82 -3 -126 0 -173 12 -153 39 -263 126 -324 256
-103 216 -70 449 87 618 102 111 213 163 350 166 44 0 98 -2 120 -6 l40 -7 35
67 c42 81 148 195 224 241 152 91 295 118 463 86z"/>
<path d="M1578 1380 c-145 -26 -255 -85 -364 -195 -64 -64 -90 -100 -119 -161
-21 -43 -39 -80 -40 -82 -1 -1 -29 4 -61 12 -146 36 -277 25 -391 -32 -69 -35
-151 -107 -193 -168 -27 -38 -30 -50 -30 -122 l0 -80 39 -35 c65 -59 143 -90
263 -107 98 -14 197 0 418 60 221 60 308 77 453 90 132 11 325 -1 482 -31 234
-45 378 -21 492 84 58 54 86 108 77 150 -18 87 -87 163 -175 193 -71 24 -182
22 -273 -5 -38 -11 -70 -20 -71 -18 -1 1 -9 38 -18 82 -32 148 -132 307 -223
350 -42 20 -194 29 -266 15z m195 -25 c15 -1 35 -2 45 -3 17 -2 85 -62 129
-115 47 -56 103 -196 103 -258 0 -15 8 -37 18 -49 l18 -22 84 20 c92 22 215
22 266 0 79 -35 144 -115 144 -177 0 -39 -39 -102 -82 -132 -18 -13 -35 -26
-38 -29 -10 -10 -56 -29 -100 -41 -83 -21 -303 -10 -406 22 -17 5 -56 9 -87 9
-65 0 -77 10 -41 36 33 25 54 75 54 131 0 63 -26 102 -76 115 -27 8 -46 20
-57 39 -20 37 -61 47 -87 24 -15 -14 -20 -31 -20 -68 l0 -51 -29 28 c-20 20
-43 30 -73 33 -49 4 -82 -10 -111 -49 -17 -23 -19 -31 -9 -53 10 -21 9 -29 -5
-45 -10 -11 -27 -20 -38 -20 -20 0 -21 4 -17 94 4 85 2 96 -17 115 -51 51 -95
12 -101 -91 0 -3 -14 7 -30 24 -26 26 -36 29 -68 24 -20 -3 -63 -7 -94 -9 -51
-3 -58 -1 -58 15 0 24 -36 59 -57 55 -49 -8 -54 -18 -64 -149 -12 -161 -6
-178 55 -178 31 0 46 5 50 16 5 14 7 14 22 0 8 -9 31 -16 50 -16 38 0 54 24
54 83 0 18 5 39 10 47 7 11 10 -3 10 -45 0 -34 5 -66 12 -73 18 -18 87 -15 95
3 5 14 7 14 24 0 14 -13 34 -16 91 -14 40 2 78 1 83 -3 6 -3 27 -5 48 -4 20 0
37 -2 37 -6 0 -5 -18 -8 -41 -8 -22 0 -48 -4 -58 -9 -9 -5 -55 -15 -101 -21
-47 -6 -98 -17 -115 -25 -29 -12 -131 -44 -157 -49 -7 -1 -22 -5 -33 -9 -20
-6 -29 -8 -115 -26 -62 -13 -247 -8 -295 9 -67 22 -124 53 -160 87 -33 31 -35
36 -35 100 0 78 9 96 85 166 76 70 85 78 85 70 0 -3 8 1 18 10 10 9 40 26 66
38 63 28 231 35 324 13 35 -8 70 -14 77 -14 8 0 33 37 55 83 23 45 48 87 56
93 8 6 14 14 14 18 0 13 146 146 153 139 2 -2 10 3 17 12 7 8 19 15 26 15 8 0
14 4 14 8 0 4 20 13 44 20 23 8 56 20 71 28 15 8 60 17 99 20 39 3 73 8 75 10
3 3 19 2 36 -2 16 -4 42 -8 58 -9z m-43 -496 c3 -27 8 -39 13 -31 9 13 65 16
83 4 36 -24 45 -106 16 -162 -31 -64 -130 -76 -172 -22 -19 24 -20 35 -15 136
8 139 7 136 42 127 24 -6 29 -13 33 -52z m-765 30 c4 -6 4 -69 0 -140 l-7
-129 -28 0 c-45 0 -49 14 -40 130 5 58 9 115 10 128 0 18 6 22 29 22 17 0 33
-5 36 -11z m367 -105 l-3 -110 35 4 c34 4 36 3 36 -27 l0 -31 -64 0 c-39 0
-68 5 -74 13 -7 8 -7 47 -2 117 5 58 9 115 10 128 0 20 4 23 33 20 l32 -3 -3
-111z m-254 40 c8 -14 10 -14 21 0 8 10 29 16 52 16 59 0 70 -24 62 -133 l-6
-88 -31 3 -31 3 0 80 c0 67 -3 80 -17 83 -25 5 -45 -35 -53 -105 -6 -56 -9
-63 -29 -63 -38 0 -44 16 -39 108 2 48 6 93 8 100 6 17 52 15 63 -4z m516 -3
c13 -14 17 -34 15 -75 -2 -33 2 -61 9 -68 18 -18 14 -36 -12 -53 -19 -13 -29
-14 -45 -5 -12 6 -21 16 -21 23 0 7 -5 5 -10 -4 -13 -22 -53 -31 -84 -19 -21
8 -26 16 -26 44 0 41 31 70 85 80 20 4 35 13 35 21 0 25 -23 29 -41 7 -22 -27
-45 -28 -59 -2 -9 17 -6 25 14 45 33 32 113 36 140 6z m96 -225 c0 0 -19 -2
-42 -4 -41 -3 -42 -2 -24 17 17 19 20 19 42 4 13 -8 24 -16 24 -17z m-140 -6
c0 -5 -4 -10 -9 -10 -6 0 -13 5 -16 10 -3 6 1 10 9 10 9 0 16 -4 16 -10z"/>
<path d="M1928 1033 c-30 -34 -41 -68 -41 -123 0 -88 45 -151 121 -170 49 -11
122 -10 122 2 0 4 10 10 22 14 28 8 51 32 65 66 16 36 -4 53 -51 44 -56 -11
-117 10 -148 51 -16 20 -28 48 -28 62 0 27 -24 71 -39 71 -4 0 -15 -8 -23 -17z
m67 -129 c43 -57 123 -86 179 -64 42 16 43 5 4 -34 -81 -81 -203 -63 -255 38
-20 38 -13 121 13 160 l19 30 7 -48 c4 -27 18 -62 33 -82z"/>
<path d="M1736 774 c-12 -11 -16 -29 -14 -58 3 -36 6 -41 28 -41 21 0 27 7 34
38 15 58 -15 95 -48 61z m21 -56 c-3 -7 -5 -2 -5 12 0 14 2 19 5 13 2 -7 2
-19 0 -25z"/>
<path d="M1490 695 c-10 -12 -9 -16 4 -21 16 -6 46 11 46 27 0 15 -37 10 -50
-6z"/>
<path d="M1033 1153 c-17 -38 -33 -76 -37 -87 -4 -12 -12 -16 -24 -11 -40 15
-140 35 -181 35 -139 0 -275 -80 -359 -213 -22 -34 -43 -78 -46 -97 -6 -25 2
-15 28 38 60 122 161 213 275 246 72 21 132 20 222 -4 41 -11 77 -20 81 -20 3
0 12 17 19 38 6 20 23 59 36 85 13 27 22 51 20 53 -2 2 -18 -26 -34 -63z"/>
<path d="M2616 653 c-14 -107 -93 -211 -194 -256 -71 -31 -177 -34 -315 -8
-227 43 -478 43 -665 1 -97 -22 -174 -46 -372 -116 -134 -48 -136 -48 -265
-48 -126 -1 -132 0 -197 31 -88 41 -151 106 -193 196 -37 80 -46 77 -15 -6 28
-74 106 -158 182 -196 34 -17 72 -31 85 -31 12 0 23 -4 23 -10 0 -15 175 -12
240 4 30 8 116 35 190 61 288 100 410 126 610 128 183 2 284 -7 410 -39 92
-24 194 -18 271 15 140 60 198 132 224 284 3 20 2 37 -3 37 -5 0 -12 -21 -16
-47z"/>
</g>
</svg>
